<svg width="24" height="24" viewBox="0 0 24 24" fill="none" xmlns="http://www.w3.org/2000/svg">
<g clip-path="url(#clip0_805_1807)">
<path d="M7 19H1V1H19V7" stroke="#00659B" stroke-width="2" stroke-linecap="round" stroke-linejoin="round"/>
<circle cx="14" cy="6" r="2" stroke="#00659B" stroke-width="2" stroke-linecap="round" stroke-linejoin="round"/>
<path d="M1 19L8 9L9.5 11" stroke="#00659B" stroke-width="2" stroke-linecap="round" stroke-linejoin="round"/>
<path d="M16 13L18 11C19.1046 9.89543 20.8954 9.89543 22 11V11C23.1046 12.1046 23.1046 13.8954 22 15L20 17" stroke="#00659B" stroke-width="2" stroke-linecap="round" stroke-linejoin="round"/>
<path d="M17 20L15 22C13.8954 23.1046 12.1046 23.1046 11 22V22C9.89543 20.8954 9.89543 19.1046 11 18L13 16" stroke="#00659B" stroke-width="2" stroke-linecap="round" stroke-linejoin="round"/>
<path d="M19 14L14 19" stroke="#00659B" stroke-width="2" stroke-linecap="round" stroke-linejoin="round"/>
</g>
<defs>
<clipPath id="clip0_805_1807">
<rect width="24" height="24" fill="white"/>
</clipPath>
</defs>
</svg>
