<svg width="24" height="24" viewBox="0 0 24 24" fill="none" xmlns="http://www.w3.org/2000/svg">
<path d="M17 20C17.5523 20 18 20.4477 18 21C18 21.5523 17.5523 22 17 22H1C0.447715 22 0 21.5523 0 21C0 20.4477 0.447715 20 1 20H17ZM23 16C23.5523 16 24 16.4477 24 17C24 17.5523 23.5523 18 23 18H1C0.447715 18 0 17.5523 0 17C0 16.4477 0.447715 16 1 16H23ZM23 12C23.5523 12 24 12.4477 24 13C24 13.5523 23.5523 14 23 14H1C0.447715 14 0 13.5523 0 13C0 12.4477 0.447715 12 1 12H23ZM23 8C23.5523 8 24 8.44772 24 9C24 9.55228 23.5523 10 23 10H15C14.4477 10 14 9.55228 14 9C14 8.44772 14.4477 8 15 8H23ZM23 4C23.5523 4 24 4.44772 24 5C24 5.55228 23.5523 6 23 6H15C14.4477 6 14 5.55228 14 5C14 4.44772 14.4477 4 15 4H23ZM23 0C23.5523 0 24 0.447715 24 1C24 1.55228 23.5523 2 23 2H15C14.4477 2 14 1.55228 14 1C14 0.447715 14.4477 0 15 0H23Z" fill="#00659B"/>
<path d="M2 1H10" stroke="#00659B" stroke-width="2" stroke-linecap="round" stroke-linejoin="round"/>
<path d="M6 1V9" stroke="#00659B" stroke-width="2" stroke-linecap="round" stroke-linejoin="round"/>
</svg>
