<svg width="24" height="24" viewBox="0 0 24 24" fill="none" xmlns="http://www.w3.org/2000/svg">
<g clip-path="url(#clip0_805_1796)">
<path d="M23 17L23.6508 17.7593C23.8724 17.5693 24 17.2919 24 17C24 16.7081 23.8724 16.4307 23.6508 16.2407L23 17ZM16 23L15 23C15 23.3905 15.2273 23.7453 15.5821 23.9085C15.9369 24.0717 16.3543 24.0134 16.6508 23.7593L16 23ZM16 11L16.6508 10.2407C16.3543 9.98659 15.9369 9.9283 15.5821 10.0915C15.2273 10.2547 15 10.6095 15 11L16 11ZM16 15L16 16C16.5523 16 17 15.5523 17 15L16 15ZM11 15L11 14C10.4477 14 10 14.4477 10 15L11 15ZM11 19L10 19C10 19.5523 10.4477 20 11 20L11 19ZM16 19L17 19C17 18.4477 16.5523 18 16 18L16 19ZM22.3492 16.2407L15.3492 22.2407L16.6508 23.7593L23.6508 17.7593L22.3492 16.2407ZM15.3492 11.7593L22.3492 17.7593L23.6508 16.2407L16.6508 10.2407L15.3492 11.7593ZM17 15L17 11L15 11L15 15L17 15ZM11 16L16 16L16 14L11 14L11 16ZM12 19L12 15L10 15L10 19L12 19ZM16 18L11 18L11 20L16 20L16 18ZM17 23L17 19L15 19L15 23L17 23Z" fill="#00659B"/>
<path d="M7 19H1V1H19V7" stroke="#00659B" stroke-width="2" stroke-linecap="round" stroke-linejoin="round"/>
<circle cx="14" cy="6" r="2" stroke="#00659B" stroke-width="2" stroke-linecap="round" stroke-linejoin="round"/>
<path d="M1 19L8 9L9.5 11" stroke="#00659B" stroke-width="2" stroke-linecap="round" stroke-linejoin="round"/>
</g>
<defs>
<clipPath id="clip0_805_1796">
<rect width="24" height="24" fill="white"/>
</clipPath>
</defs>
</svg>
