<svg width="24" height="24" viewBox="0 0 24 24" fill="none" xmlns="http://www.w3.org/2000/svg">
<path d="M8 12H16" stroke="#00659B" stroke-width="2" stroke-linecap="round" stroke-linejoin="round"/>
<path d="M4 5V19" stroke="#00659B" stroke-width="2" stroke-linecap="round" stroke-linejoin="round"/>
<path d="M16 5V19" stroke="#00659B" stroke-width="2" stroke-linecap="round" stroke-linejoin="round"/>
<path d="M8 5V19" stroke="#00659B" stroke-width="2" stroke-linecap="round" stroke-linejoin="round"/>
<path d="M20 5V19" stroke="#00659B" stroke-width="2" stroke-linecap="round" stroke-linejoin="round"/>
<path d="M4 5C4 3.89543 3.10457 3 2 3" stroke="#00659B" stroke-width="2" stroke-linecap="round" stroke-linejoin="round"/>
<path d="M16 5C16 3.89543 15.1046 3 14 3" stroke="#00659B" stroke-width="2" stroke-linecap="round" stroke-linejoin="round"/>
<path d="M4 19C4 20.1046 3.10457 21 2 21" stroke="#00659B" stroke-width="2" stroke-linecap="round" stroke-linejoin="round"/>
<path d="M16 19C16 20.1046 15.1046 21 14 21" stroke="#00659B" stroke-width="2" stroke-linecap="round" stroke-linejoin="round"/>
<path d="M8 5C8 3.89543 8.89543 3 10 3" stroke="#00659B" stroke-width="2" stroke-linecap="round" stroke-linejoin="round"/>
<path d="M20 5C20 3.89543 20.8954 3 22 3" stroke="#00659B" stroke-width="2" stroke-linecap="round" stroke-linejoin="round"/>
<path d="M8 19C8 20.1046 8.89543 21 10 21" stroke="#00659B" stroke-width="2" stroke-linecap="round" stroke-linejoin="round"/>
<path d="M20 19C20 20.1046 20.8954 21 22 21" stroke="#00659B" stroke-width="2" stroke-linecap="round" stroke-linejoin="round"/>
<path d="M10 3H2" stroke="#00659B" stroke-width="2" stroke-linecap="round" stroke-linejoin="round"/>
<path d="M22 3H14" stroke="#00659B" stroke-width="2" stroke-linecap="round" stroke-linejoin="round"/>
<path d="M10 21H2" stroke="#00659B" stroke-width="2" stroke-linecap="round" stroke-linejoin="round"/>
<path d="M22 21H14" stroke="#00659B" stroke-width="2" stroke-linecap="round" stroke-linejoin="round"/>
</svg>
