<svg width="24" height="24" viewBox="0 0 24 24" fill="none" xmlns="http://www.w3.org/2000/svg">
<g clip-path="url(#clip0_805_1849)">
<rect x="1" y="1" width="22" height="14" stroke="#00659B" stroke-width="2" stroke-linecap="round" stroke-linejoin="round"/>
<circle cx="17" cy="7" r="2" stroke="#00659B" stroke-width="2" stroke-linecap="round" stroke-linejoin="round"/>
<path d="M7 5L7.85749 4.4855C7.67677 4.1843 7.35126 4 7 4C6.64874 4 6.32323 4.1843 6.14251 4.4855L7 5ZM10.4884 10.814L9.63088 11.3284C9.79752 11.6062 10.0884 11.786 10.4113 11.811C10.7342 11.8359 11.0492 11.703 11.2566 11.4541L10.4884 10.814ZM1 15L0.142507 14.4855C-0.0428514 14.7944 -0.0477055 15.1792 0.1298 15.4927C0.307306 15.8062 0.639728 16 1 16L1 15ZM17 15V16C17.388 16 17.741 15.7755 17.9056 15.4242C18.0702 15.0728 18.0166 14.6579 17.7682 14.3598L17 15ZM12 9L12.7682 8.35982C12.5782 8.13182 12.2968 8 12 8C11.7032 8 11.4218 8.13182 11.2318 8.35982L12 9ZM6.14251 5.5145L9.63088 11.3284L11.3459 10.2995L7.85749 4.4855L6.14251 5.5145ZM1.85749 15.5145L7.85749 5.5145L6.14251 4.4855L0.142507 14.4855L1.85749 15.5145ZM7 14H1V16H7V14ZM13 14H7V16H13V14ZM17 14H13V16H17V14ZM11.2318 9.64018L16.2318 15.6402L17.7682 14.3598L12.7682 8.35982L11.2318 9.64018ZM11.2566 11.4541L12.7682 9.64018L11.2318 8.35982L9.72015 10.1738L11.2566 11.4541Z" fill="#00659B"/>
<path d="M3 19H21" stroke="#00659B" stroke-width="2" stroke-linecap="round" stroke-linejoin="round"/>
<path d="M5 23H19" stroke="#00659B" stroke-width="2" stroke-linecap="round" stroke-linejoin="round"/>
</g>
<defs>
<clipPath id="clip0_805_1849">
<rect width="24" height="24" fill="white"/>
</clipPath>
</defs>
</svg>
