<svg width="24" height="24" viewBox="0 0 24 24" fill="none" xmlns="http://www.w3.org/2000/svg">
<g clip-path="url(#clip0_805_1882)">
<path d="M18 12L18.6508 12.7593C18.8724 12.5693 19 12.2919 19 12C19 11.7081 18.8724 11.4307 18.6508 11.2407L18 12ZM11 18L10 18C10 18.3905 10.2273 18.7453 10.5821 18.9085C10.9369 19.0717 11.3543 19.0134 11.6508 18.7593L11 18ZM11 6L11.6508 5.24074C11.3543 4.98659 10.9369 4.9283 10.5821 5.09149C10.2273 5.25467 10 5.60947 10 6L11 6ZM11 10L11 11C11.5523 11 12 10.5523 12 10L11 10ZM6 10L6 9C5.73478 9 5.48043 9.10536 5.29289 9.29289C5.10536 9.48043 5 9.73478 5 10L6 10ZM6 14L5 14C5 14.5523 5.44771 15 6 15L6 14ZM11 14L12 14C12 13.4477 11.5523 13 11 13L11 14ZM17.3492 11.2407L10.3492 17.2407L11.6508 18.7593L18.6508 12.7593L17.3492 11.2407ZM10.3492 6.75926L17.3492 12.7593L18.6508 11.2407L11.6508 5.24074L10.3492 6.75926ZM12 10L12 6L10 6L10 10L12 10ZM6 11L11 11L11 9L6 9L6 11ZM7 14L7 10L5 10L5 14L7 14ZM11 13L6 13L6 15L11 15L11 13ZM12 18L12 14L10 14L10 18L12 18Z" fill="#00659B"/>
<circle cx="12" cy="12" r="11" stroke="#00659B" stroke-width="2"/>
</g>
<defs>
<clipPath id="clip0_805_1882">
<rect width="24" height="24" fill="white"/>
</clipPath>
</defs>
</svg>
