<svg width="24" height="24" viewBox="0 0 24 24" fill="none" xmlns="http://www.w3.org/2000/svg">
<g clip-path="url(#clip0_805_1861)">
<path d="M19 18C19.5523 18 20 18.4477 20 19V23C20 23.5523 19.5523 24 19 24C18.4477 24 18 23.5523 18 23V19C18 18.4477 18.4477 18 19 18ZM23 18C23.5523 18 24 18.4477 24 19V23C24 23.5523 23.5523 24 23 24C22.4477 24 22 23.5523 22 23V19C22 18.4477 22.4477 18 23 18ZM14 21C14.5523 21 15 21.4477 15 22C15 22.5523 14.5523 23 14 23H4C3.44772 23 3 22.5523 3 22C3 21.4477 3.44772 21 4 21H14ZM14 17C14.5523 17 15 17.4477 15 18C15 18.5523 14.5523 19 14 19H4C3.44772 19 3 18.5523 3 18C3 17.4477 3.44772 17 4 17H14ZM20 13C20.5523 13 21 13.4477 21 14C21 14.5523 20.5523 15 20 15H4C3.44772 15 3 14.5523 3 14C3 13.4477 3.44772 13 4 13H20ZM20 9C20.5523 9 21 9.44772 21 10C21 10.5523 20.5523 11 20 11H4C3.44772 11 3 10.5523 3 10C3 9.44772 3.44772 9 4 9H20ZM20 5C20.5523 5 21 5.44772 21 6C21 6.55228 20.5523 7 20 7H10C9.44772 7 9 6.55228 9 6C9 5.44772 9.44772 5 10 5H20ZM1 0C1.55228 0 2 0.447716 2 1V5C2 5.55228 1.55228 6 1 6C0.447716 6 0 5.55228 0 5V1C0 0.447716 0.447716 0 1 0ZM5 0C5.55228 0 6 0.447716 6 1V5C6 5.55228 5.55228 6 5 6C4.44772 6 4 5.55228 4 5V1C4 0.447716 4.44772 0 5 0ZM20 1C20.5523 1 21 1.44772 21 2C21 2.55228 20.5523 3 20 3H10C9.44772 3 9 2.55228 9 2C9 1.44772 9.44772 1 10 1H20Z" fill="#00659B"/>
</g>
<defs>
<clipPath id="clip0_805_1861">
<rect width="24" height="24" fill="white"/>
</clipPath>
</defs>
</svg>
