<svg width="24" height="24" viewBox="0 0 24 24" fill="none" xmlns="http://www.w3.org/2000/svg">
<g clip-path="url(#clip0_805_1818)">
<rect x="1" y="1" width="22" height="22" stroke="#00659B" stroke-width="2" stroke-linecap="round" stroke-linejoin="round"/>
<path d="M9 11L9.83205 10.4453C9.64658 10.1671 9.33435 10 9 10C8.66565 10 8.35342 10.1671 8.16795 10.4453L9 11ZM14.1765 18.7647L13.3444 19.3194C13.5244 19.5894 13.8243 19.7553 14.1487 19.7643C14.4731 19.7733 14.7817 19.6243 14.9765 19.3647L14.1765 18.7647ZM1 23L0.16795 22.4453C-0.0366211 22.7522 -0.0556936 23.1467 0.118325 23.4719C0.292344 23.797 0.631205 24 1 24L1 23ZM23 23V24C23.3788 24 23.725 23.786 23.8944 23.4472C24.0638 23.1084 24.0273 22.703 23.8 22.4L23 23ZM17 15L17.8 14.4C17.6111 14.1482 17.3148 14 17 14C16.6852 14 16.3889 14.1482 16.2 14.4L17 15ZM8.16795 11.5547L13.3444 19.3194L15.0085 18.21L9.83205 10.4453L8.16795 11.5547ZM1.83205 23.5547L9.83205 11.5547L8.16795 10.4453L0.16795 22.4453L1.83205 23.5547ZM11 22H1V24H11V22ZM17 22H11V24H17V22ZM23 22H17V24H23V22ZM16.2 15.6L22.2 23.6L23.8 22.4L17.8 14.4L16.2 15.6ZM14.9765 19.3647L17.8 15.6L16.2 14.4L13.3765 18.1647L14.9765 19.3647Z" fill="#00659B"/>
<circle cx="17" cy="7" r="2" stroke="#00659B" stroke-width="2" stroke-linecap="round" stroke-linejoin="round"/>
</g>
<defs>
<clipPath id="clip0_805_1818">
<rect width="24" height="24" fill="white"/>
</clipPath>
</defs>
</svg>
