<svg width="17" height="16" fill="none" xmlns="http://www.w3.org/2000/svg"><g clip-path="url(#a)"><path d="M6.371 16.2c-.36 0-.61-.163-.75-.49-.14-.327-.084-.617.17-.87l1.04-1.04h-4.8c-.44 0-.817-.157-1.13-.47a1.538 1.538 0 0 1-.47-1.13V2.6c0-.44.157-.817.47-1.13.314-.314.69-.47 1.13-.47h12.8c.44 0 .817.157 1.13.47.314.314.47.69.47 1.13v9.6c0 .44-.157.817-.47 1.13-.314.314-.69.47-1.13.47h-4.8l1.04 1.04c.254.253.31.543.17.87-.14.327-.39.49-.75.49h-4.12Zm-4.34-6.4h12.8V2.6h-12.8v7.2Z" fill="#fff"/></g><defs><clipPath id="a"><path fill="#fff" d="M.431 0h16v16h-16z"/></clipPath></defs></svg>
