<svg width="16" height="16" viewBox="0 0 16 16" fill="none" xmlns="http://www.w3.org/2000/svg">
<path opacity="0.5" d="M14.2783 10.0781C14.1991 10.1332 12.5565 11.8713 12.5565 13.0911C12.5565 14.3773 13.3735 15.1985 14.2783 15.2433C15.0582 15.2812 16 14.4763 16 13.0911C16 11.7998 14.3575 10.1332 14.2783 10.0781ZM5.31325 15.2433C5.63865 15.5687 6.07081 15.7478 6.53051 15.7478C6.99021 15.7478 7.42236 15.5687 7.74777 15.2433L13.7738 9.21726L13.1652 8.60863L6.53051 1.97396L4.55655 0L3.33929 1.21726L5.31325 3.19122L0.504466 8C0.179059 8.32541 0 8.75756 0 9.21726C0 9.67696 0.179059 10.1091 0.504466 10.4345L5.31325 15.2433ZM6.53051 4.40848L11.3393 9.21726H1.72173L6.53051 4.40848Z" fill="#130F13"/>
</svg>
