<svg width="78" height="30" viewBox="0 0 78 30" fill="none" xmlns="http://www.w3.org/2000/svg">
<path fill-rule="evenodd" clip-rule="evenodd" d="M6.8084 8.60244C7.47996 8.80872 8.43726 8.23929 9.56244 7.56999C10.8607 6.79776 12.3824 5.8926 13.9466 5.8926C16.5291 5.8926 16.6658 9.30427 16.7522 11.4594C16.792 12.4543 16.8212 13.1815 17.0753 13.1815C17.3755 13.1815 17.6807 12.1152 18.0696 10.7566C18.7227 8.47486 19.6118 5.36854 21.1099 5.10343C23.4109 4.69623 23.8285 10.4765 24.1331 14.6933L24.1681 15.1759C24.4603 19.1764 32.4827 14.8065 28.8092 8.24037C21.971 -3.98314 12.6238 0.411752 9.84298 2.55549C5.98534 5.53007 5.36199 8.15863 6.8084 8.60244ZM3.31876 11.8186C4.56502 10.8121 4.95137 9.71792 4.71366 9.02105C4.47595 8.32418 3.10098 8.18357 1.94701 8.77876C1.00807 9.26334 0.500609 10.2323 0.937326 11.3452C1.33649 12.3588 2.54197 12.4458 3.31876 11.8186ZM25.7934 19.1607C26.3748 18.6982 26.9595 18.2329 27.7773 18.2329C29.3899 18.2329 30.9261 22.2142 27.2331 23.9402C25.313 24.8371 23.6991 24.3188 22.0698 23.7956C19.9715 23.1217 17.8477 22.4397 15.0117 24.7619C14.5967 25.1016 14.1523 25.5445 13.6687 26.0263C11.3969 28.2902 8.26179 31.4143 3.26222 28.7446C-1.92732 25.9733 -0.125048 19.5726 3.14014 14.8747C5.15976 11.9689 9.87274 8.6819 10.7521 9.32152C11.6315 9.96114 9.74816 16.6978 6.34603 23.0888C5.60084 24.4885 5.67436 25.4539 6.22397 25.8609C7.03489 26.462 9.68497 26.1833 11.5518 18.1468C11.8769 16.7462 12.1318 15.5378 12.348 14.5131C12.9968 11.4383 13.2967 10.017 14.0938 10.017C14.5717 10.017 14.7893 11.8096 15.0289 13.7828C15.3221 16.1979 15.6482 18.8835 16.5245 18.8835C17.6715 18.8835 18.5689 15.8464 19.3781 13.108C20.0424 10.8601 20.6471 8.81335 21.2817 8.81335C21.954 8.81335 21.9243 10.6771 21.8891 12.888C21.8378 16.1113 21.7747 20.0725 23.858 20.0725C24.6476 20.0725 25.2188 19.6179 25.7934 19.1607Z" fill="white"/>
<path d="M43.7324 14.6685H45.3259V6.87022H43.1846L40.9736 12.1288L38.7228 6.87022H36.6412V14.6685H38.2248V9.54933H38.2347L40.4358 14.6685H41.5114L43.7224 9.50949H43.7324V14.6685Z" fill="white"/>
<path d="M47.6011 11.4118C47.6609 11.0632 48.0592 10.4855 48.7564 10.4855C49.5333 10.4855 49.8619 11.0233 49.8918 11.4118H47.6011ZM51.4256 12.4376C51.4455 12.2583 51.4455 12.0691 51.4455 11.8799C51.4455 10.3063 50.3798 9.22067 48.7962 9.22067C47.2625 9.22067 45.9777 10.4656 45.9777 11.9994C45.9777 13.6526 47.2824 14.788 48.8958 14.788C49.9416 14.788 50.9276 14.2403 51.2762 13.2144L50.0013 12.7762C49.8221 13.2144 49.3241 13.4833 48.8759 13.4833C48.2286 13.4833 47.6609 13.1049 47.5613 12.4376H51.4256Z" fill="white"/>
<path d="M55.4364 9.35014C55.3268 9.32026 55.1376 9.29038 55.0181 9.29038C54.4703 9.29038 53.9325 9.51945 53.6437 10.127H53.6238V9.35014H52.1497V14.6685H53.6736V12.338C53.6736 11.352 54.1914 10.8341 54.9384 10.8341C55.0081 10.8341 55.2272 10.8341 55.4364 10.8739V9.35014Z" fill="white"/>
<path d="M58.7841 14.788C59.9294 14.788 61.1047 14.1805 61.4433 12.9555L60.029 12.5272C59.8796 12.9356 59.4813 13.3539 58.804 13.3539C58.0371 13.3539 57.5192 12.7862 57.5192 11.9994C57.5192 11.1528 58.1069 10.6548 58.7941 10.6548C59.4613 10.6548 59.8697 11.0731 59.9892 11.4715L61.4035 11.0433C61.1345 9.8282 59.9294 9.23063 58.8239 9.23063C57.1906 9.23063 55.9257 10.4457 55.9257 12.0193C55.9257 13.6028 57.1109 14.788 58.7841 14.788Z" fill="white"/>
<path d="M63.5722 9.35014H62.0186V12.6866C62.0186 13.7821 62.646 14.7781 63.9706 14.7781C64.12 14.7781 64.9168 14.788 65.4546 14.0112H65.4645V14.6685H66.9983V9.35014H65.4446V12.3181C65.4446 12.8658 65.1458 13.3339 64.4885 13.3339C63.8411 13.3339 63.5722 12.9057 63.5722 12.3181V9.35014Z" fill="white"/>
<path d="M71.3151 9.35014C71.2055 9.32026 71.0163 9.29038 70.8968 9.29038C70.349 9.29038 69.8112 9.51945 69.5224 10.127H69.5024V9.35014H68.0284V14.6685H69.5522V12.338C69.5522 11.352 70.0701 10.8341 70.8171 10.8341C70.8868 10.8341 71.1059 10.8341 71.3151 10.8739V9.35014Z" fill="white"/>
<path d="M72.5884 17.2879H74.2516L77.6789 9.35014H75.875L74.6899 12.3878L73.3653 9.35014H71.6522L73.8931 14.1008L72.5884 17.2879Z" fill="white"/>
<path d="M39.6888 18.3934H36.8376V22.8495H39.7116V22.2121H37.5376V20.8975H39.4953V20.2658H37.5376V19.0251H39.6888V18.3934Z" fill="white"/>
<path d="M46.3366 20.6243C46.3366 19.6966 45.6707 18.3934 43.9577 18.3934H42.5463V22.8495H43.969C45.6138 22.8495 46.3366 21.6487 46.3366 20.6243ZM45.6024 20.6243C45.6024 21.3698 45.113 22.2007 43.9406 22.2007H43.2463V19.0422H43.9463C45.1187 19.0422 45.6024 19.93 45.6024 20.6243Z" fill="white"/>
<path d="M49.8109 22.8495V18.3934H49.1109V22.8495H49.8109Z" fill="white"/>
<path d="M53.836 19.0422V22.8495H54.536V19.0422H55.9531V18.3934H52.4246V19.0422H53.836Z" fill="white"/>
<path d="M58.0648 20.63C58.0648 21.9446 59.0778 22.9008 60.3413 22.9008C61.599 22.9008 62.6405 21.9276 62.6405 20.6129C62.6405 19.3096 61.6218 18.3308 60.3583 18.3308C59.0949 18.3308 58.0648 19.3324 58.0648 20.63ZM58.799 20.6129C58.799 19.708 59.4762 18.9796 60.3526 18.9796C61.2234 18.9796 61.9063 19.708 61.9063 20.6129C61.9063 21.5178 61.2234 22.252 60.3526 22.252C59.4762 22.252 58.799 21.5178 58.799 20.6129Z" fill="white"/>
<path d="M66.12 21.1593H67.0476L67.9468 22.8495H68.7208L67.7306 21.017C68.3168 20.8064 68.6127 20.334 68.6127 19.7649C68.6127 19.0706 68.2143 18.3934 67.0932 18.3934H65.42V22.8495H66.12V21.1593ZM67.0192 20.5275H66.12V19.0422H67.0192C67.7477 19.0422 67.9013 19.4462 67.9013 19.782C67.9013 20.1292 67.6964 20.5275 67.0192 20.5275Z" fill="white"/>
</svg>
