<svg width="78" height="30" viewBox="0 0 78 30" fill="none" xmlns="http://www.w3.org/2000/svg">
<path fill-rule="evenodd" clip-rule="evenodd" d="M6.8084 8.60331C7.47996 8.80959 8.43726 8.24016 9.56243 7.57086C10.8607 6.79863 12.3824 5.89347 13.9465 5.89347C16.529 5.89347 16.6658 9.30514 16.7522 11.4603C16.792 12.4552 16.8212 13.1823 17.0753 13.1823C17.3755 13.1823 17.6807 12.1161 18.0696 10.7574C18.7227 8.47573 19.6118 5.36941 21.1099 5.1043C23.4109 4.69709 23.8285 10.4774 24.1331 14.6941L24.1681 15.1767C24.4603 19.1773 32.4827 14.8073 28.8092 8.24124C21.971 -3.98227 12.6238 0.412621 9.84297 2.55636C5.98534 5.53094 5.36199 8.1595 6.8084 8.60331ZM3.31876 11.8195C4.56502 10.813 4.95137 9.71879 4.71366 9.02192C4.47595 8.32505 3.10097 8.18444 1.947 8.77963C1.00807 9.26421 0.500607 10.2331 0.937324 11.3461C1.33648 12.3597 2.54196 12.4467 3.31876 11.8195ZM25.7934 19.1616C26.3748 18.699 26.9595 18.2338 27.7772 18.2338C29.3899 18.2338 30.9261 22.2151 27.2331 23.9411C25.313 24.8379 23.699 24.3196 22.0698 23.7964C19.9715 23.1226 17.8477 22.4406 15.0117 24.7628C14.5967 25.1025 14.1523 25.5454 13.6687 26.0272C11.3969 28.2911 8.26179 31.4152 3.26222 28.7454C-1.92732 25.9742 -0.12505 19.5735 3.14014 14.8756C5.15976 11.9697 9.87274 8.68277 10.7521 9.32239C11.6315 9.96201 9.74816 16.6987 6.34602 23.0896C5.60083 24.4893 5.67435 25.4548 6.22397 25.8618C7.03489 26.4629 9.68497 26.1842 11.5518 18.1477C11.8769 16.747 12.1318 15.5387 12.348 14.5139C12.9968 11.4391 13.2967 10.0179 14.0938 10.0179C14.5717 10.0179 14.7893 11.8105 15.0289 13.7836C15.3221 16.1988 15.6482 18.8844 16.5245 18.8844C17.6715 18.8844 18.5689 15.8473 19.3781 13.1089C20.0424 10.8609 20.6471 8.81422 21.2817 8.81422C21.954 8.81422 21.9243 10.678 21.8891 12.8889C21.8378 16.1122 21.7747 20.0734 23.858 20.0734C24.6476 20.0734 25.2188 19.6188 25.7934 19.1616Z" fill="url(#paint0_linear_902_1393)"/>
<path d="M43.7324 14.6685H45.3259V6.87023H43.1846L40.9736 12.1288L38.7228 6.87023H36.6412V14.6685H38.2248V9.54934H38.2347L40.4358 14.6685H41.5114L43.7224 9.5095H43.7324V14.6685Z" fill="black"/>
<path d="M47.6011 11.4118C47.6609 11.0632 48.0592 10.4855 48.7564 10.4855C49.5333 10.4855 49.8619 11.0233 49.8918 11.4118H47.6011ZM51.4256 12.4376C51.4455 12.2583 51.4455 12.0691 51.4455 11.8799C51.4455 10.3063 50.3798 9.22067 48.7962 9.22067C47.2625 9.22067 45.9777 10.4656 45.9777 11.9994C45.9777 13.6527 47.2824 14.788 48.8958 14.788C49.9416 14.788 50.9276 14.2403 51.2762 13.2144L50.0013 12.7762C49.8221 13.2144 49.3241 13.4833 48.8759 13.4833C48.2286 13.4833 47.6609 13.1049 47.5613 12.4376H51.4256Z" fill="black"/>
<path d="M55.4364 9.35015C55.3268 9.32027 55.1376 9.29039 55.0181 9.29039C54.4703 9.29039 53.9325 9.51946 53.6437 10.127H53.6238V9.35015H52.1497V14.6685H53.6736V12.338C53.6736 11.352 54.1914 10.8341 54.9384 10.8341C55.0081 10.8341 55.2272 10.8341 55.4364 10.874V9.35015Z" fill="black"/>
<path d="M58.7841 14.788C59.9294 14.788 61.1047 14.1805 61.4433 12.9555L60.029 12.5272C59.8796 12.9356 59.4813 13.3539 58.804 13.3539C58.0371 13.3539 57.5192 12.7862 57.5192 11.9994C57.5192 11.1528 58.1069 10.6548 58.7941 10.6548C59.4613 10.6548 59.8697 11.0731 59.9892 11.4715L61.4035 11.0433C61.1345 9.8282 59.9294 9.23063 58.8239 9.23063C57.1906 9.23063 55.9257 10.4457 55.9257 12.0193C55.9257 13.6029 57.1109 14.788 58.7841 14.788Z" fill="black"/>
<path d="M63.5722 9.35015H62.0186V12.6866C62.0186 13.7821 62.646 14.7781 63.9706 14.7781C64.12 14.7781 64.9168 14.788 65.4546 14.0112H65.4645V14.6685H66.9983V9.35015H65.4446V12.3181C65.4446 12.8659 65.1458 13.3339 64.4885 13.3339C63.8411 13.3339 63.5722 12.9057 63.5722 12.3181V9.35015Z" fill="black"/>
<path d="M71.3151 9.35015C71.2055 9.32027 71.0163 9.29039 70.8968 9.29039C70.349 9.29039 69.8112 9.51946 69.5224 10.127H69.5024V9.35015H68.0284V14.6685H69.5522V12.338C69.5522 11.352 70.0701 10.8341 70.8171 10.8341C70.8868 10.8341 71.1059 10.8341 71.3151 10.874V9.35015Z" fill="black"/>
<path d="M72.5884 17.2879H74.2516L77.6789 9.35015H75.875L74.6899 12.3878L73.3653 9.35015H71.6522L73.8931 14.1008L72.5884 17.2879Z" fill="black"/>
<path d="M39.6888 18.3934H36.8376V22.8495H39.7116V22.2121H37.5376V20.8975H39.4953V20.2658H37.5376V19.0251H39.6888V18.3934Z" fill="#666666"/>
<path d="M46.3366 20.6243C46.3366 19.6967 45.6707 18.3934 43.9577 18.3934H42.5463V22.8495H43.969C45.6138 22.8495 46.3366 21.6487 46.3366 20.6243ZM45.6024 20.6243C45.6024 21.3698 45.113 22.2008 43.9406 22.2008H43.2463V19.0422H43.9463C45.1187 19.0422 45.6024 19.93 45.6024 20.6243Z" fill="#666666"/>
<path d="M49.8109 22.8495V18.3934H49.1109V22.8495H49.8109Z" fill="#666666"/>
<path d="M53.836 19.0422V22.8495H54.536V19.0422H55.9531V18.3934H52.4246V19.0422H53.836Z" fill="#666666"/>
<path d="M58.0648 20.63C58.0648 21.9447 59.0778 22.9008 60.3413 22.9008C61.599 22.9008 62.6405 21.9276 62.6405 20.6129C62.6405 19.3097 61.6218 18.3308 60.3583 18.3308C59.0949 18.3308 58.0648 19.3324 58.0648 20.63ZM58.799 20.6129C58.799 19.708 59.4762 18.9796 60.3526 18.9796C61.2234 18.9796 61.9063 19.708 61.9063 20.6129C61.9063 21.5178 61.2234 22.252 60.3526 22.252C59.4762 22.252 58.799 21.5178 58.799 20.6129Z" fill="#666666"/>
<path d="M66.12 21.1593H67.0476L67.9468 22.8495H68.7208L67.7306 21.017C68.3168 20.8064 68.6127 20.3341 68.6127 19.7649C68.6127 19.0706 68.2143 18.3934 67.0932 18.3934H65.42V22.8495H66.12V21.1593ZM67.0192 20.5276H66.12V19.0422H67.0192C67.7477 19.0422 67.9013 19.4462 67.9013 19.782C67.9013 20.1292 67.6964 20.5276 67.0192 20.5276Z" fill="#666666"/>
<defs>
<linearGradient id="paint0_linear_902_1393" x1="26.1061" y1="3.66501" x2="2.74764" y2="26.3356" gradientUnits="userSpaceOnUse">
<stop offset="0.126355" stop-color="#FF9100"/>
<stop offset="0.853749" stop-color="#FF004C"/>
</linearGradient>
</defs>
</svg>
