<svg xmlns="http://www.w3.org/2000/svg" viewbox="0 0 200 124" xml:space="preserve">
<path style="fill:var(--cm-gray-500, #b2b2b2)" d="M22,21h12c1.1,0,2,0.9,2,2v3c0,1.1-0.9,2-2,2H22c-1.1,0-2-0.9-2-2v-3C20,21.9,20.9,21,22,21z M48,22L48,22
	c1.1,0,2,0.9,2,2l0,0c0,1.1-0.9,2-2,2l0,0c-1.1,0-2-0.9-2-2l0,0C46,22.9,46.9,22,48,22z M22,49.7h12c1.1,0,2,0.9,2,2v3
	c0,1.1-0.9,2-2,2H22c-1.1,0-2-0.9-2-2v-3C20,50.6,20.9,49.7,22,49.7z M48,50.7L48,50.7c1.1,0,2,0.9,2,2l0,0c0,1.1-0.9,2-2,2l0,0
	c-1.1,0-2-0.9-2-2l0,0C46,51.6,46.9,50.7,48,50.7z M22,78.3h12c1.1,0,2,0.9,2,2v3c0,1.1-0.9,2-2,2H22c-1.1,0-2-0.9-2-2v-3
	C20,79.2,20.9,78.3,22,78.3z M48,79.3L48,79.3c1.1,0,2,0.9,2,2l0,0c0,1.1-0.9,2-2,2l0,0c-1.1,0-2-0.9-2-2l0,0
	C46,80.2,46.9,79.3,48,79.3z"/>
<path style="fill:var(--cm-primary, #faad14)" d="M61,21h46c0.6,0,1,0.4,1,1v5c0,0.6-0.4,1-1,1H61c-0.6,0-1-0.4-1-1v-5C60,21.4,60.4,21,61,21z M61,49.7h75
	c0.6,0,1,0.4,1,1v5c0,0.6-0.4,1-1,1H61c-0.6,0-1-0.4-1-1v-5C60,50.1,60.4,49.7,61,49.7z M61,78.3h46c0.6,0,1,0.4,1,1v5
	c0,0.6-0.4,1-1,1H61c-0.6,0-1-0.4-1-1v-5C60,78.8,60.4,78.3,61,78.3z"/>
<path style="fill:var(--cm-gray-400, #cfcfcf)" d="M48,29L48,29c0.6,0,1,0.4,1,1v14.7c0,0.6-0.4,1-1,1l0,0c-0.6,0-1-0.4-1-1V30C47,29.4,47.4,29,48,29z M61.5,33
	h117c0.8,0,1.5,0.7,1.5,1.5l0,0c0,0.8-0.7,1.5-1.5,1.5h-117c-0.8,0-1.5-0.7-1.5-1.5l0,0C60,33.7,60.7,33,61.5,33z M61.5,39h58
	c0.8,0,1.5,0.7,1.5,1.5l0,0c0,0.8-0.7,1.5-1.5,1.5h-58c-0.8,0-1.5-0.7-1.5-1.5l0,0C60,39.7,60.7,39,61.5,39z M48,57.7L48,57.7
	c0.6,0,1,0.4,1,1v14.7c0,0.6-0.4,1-1,1l0,0c-0.6,0-1-0.4-1-1V58.7C47,58.1,47.4,57.7,48,57.7z M61.5,61.7h117c0.8,0,1.5,0.7,1.5,1.5
	l0,0c0,0.8-0.7,1.5-1.5,1.5h-117c-0.8,0-1.5-0.7-1.5-1.5l0,0C60,62.3,60.7,61.7,61.5,61.7z M61.5,67.7h58c0.8,0,1.5,0.7,1.5,1.5l0,0
	c0,0.8-0.7,1.5-1.5,1.5h-58c-0.8,0-1.5-0.7-1.5-1.5l0,0C60,68.3,60.7,67.7,61.5,67.7z M48,86.3L48,86.3c0.6,0,1,0.4,1,1V102
	c0,0.6-0.4,1-1,1l0,0c-0.6,0-1-0.4-1-1V87.3C47,86.8,47.4,86.3,48,86.3z M61.5,90.3h117c0.8,0,1.5,0.7,1.5,1.5l0,0
	c0,0.8-0.7,1.5-1.5,1.5h-117c-0.8,0-1.5-0.7-1.5-1.5l0,0C60,91,60.7,90.3,61.5,90.3z M61.5,96.3h58c0.8,0,1.5,0.7,1.5,1.5l0,0
	c0,0.8-0.7,1.5-1.5,1.5h-58c-0.8,0-1.5-0.7-1.5-1.5l0,0C60,97,60.7,96.3,61.5,96.3z"/>
</svg>
